<svg width="180" height="180" viewBox="0 0 120 120" fill="none" xmlns="http://www.w3.org/2000/svg">
   <!--HTML--> 
   <g id="html">
    <path d="M22.1325 102.004L13.7063 7.5H106.294L97.8563 101.989L59.9438 112.5L22.1325 102.004Z" fill="#E44F26"/>
    <path d="M60 104.468L90.6375 95.9738L97.845 15.2288H60V104.468Z" fill="#F1662A"/>
    <path d="M60 50.2763H44.6625L43.605 38.4075H60V26.8163H30.9375L31.215 29.9288L34.0613 61.8675H60V50.2763ZM60 80.3775L59.9475 80.3925L47.04 76.9088L46.215 67.665H34.5787L36.2025 85.86L59.9475 92.4525L60 92.4375V80.3775Z" fill="#EBEBEB"/>
    <path d="M59.9587 50.2763V61.8675H74.2312L72.8887 76.9013L59.9587 80.3888V92.4488L83.7225 85.86L83.895 83.9025L86.6175 53.3888L86.9025 50.2763H59.9587ZM59.9587 26.8163V38.4075H87.9562L88.1887 35.805L88.7175 29.9288L88.995 26.8163H59.9587Z" fill="white"/>
   </g>

   <!--CSS--> 
   <g id="css">
    <path d="M22.1325 101.154L13.71 7.4375H106.29L97.8562 101.139L59.9437 111.562L22.1325 101.154Z" fill="#1572B6"/>
    <path d="M60 103.597L90.6375 95.1739L97.845 15.1018H60V103.597Z" fill="#33A9DC"/>
    <path d="M60 49.054H75.3375L76.395 37.2842H60V25.7896H89.0625L88.785 28.8724L85.9387 60.5487H60V49.054Z" fill="white"/>
    <path d="M60.0713 78.9045L60.0188 78.9193L47.1113 75.4609L46.2863 66.2942H34.65L36.2738 84.3413L60.015 90.8788L60.0713 90.864V78.9045Z" fill="#EBEBEB"/>
    <path d="M74.3513 60.0615L72.9563 75.4534L60.03 78.9119V90.8714L83.79 84.3412L83.9663 82.4001L85.98 60.0615H74.3513Z" fill="white"/>
    <path d="M60.0413 25.7896V37.2842H32.0438L31.8113 34.6997L31.2825 28.8724L31.005 25.7896H60.0413ZM60 49.054V60.5487H47.2538L47.0213 57.9642L46.4963 52.1369L46.2188 49.054H60Z" fill="#EBEBEB"/>
   </g>

   <!--JS--> 
   <g id="js">
    <path d="M7.5 7.5H112.5V112.5H7.5V7.5Z" fill="#F5DE19"/>
    <path d="M78.0338 89.5312C78.9284 91.3485 80.3183 92.8759 82.0434 93.9375C83.7684 94.9991 85.7584 95.5515 87.7838 95.5313C91.8713 95.5313 94.485 93.4875 94.485 90.6562C94.485 87.2812 91.8 86.0738 87.3 84.105L84.8325 83.0475C77.7075 80.0138 72.9825 76.215 72.9825 68.1825C72.9825 60.7838 78.6075 55.1475 87.4313 55.1475C90.2877 54.9412 93.1416 55.5805 95.637 56.9856C98.1324 58.3907 100.159 60.4994 101.464 63.0488L93.75 67.98C93.2476 66.716 92.3728 65.6345 91.2416 64.879C90.1105 64.1236 88.7764 63.7298 87.4163 63.75C86.8229 63.6906 86.2236 63.7555 85.6567 63.9404C85.0897 64.1254 84.5675 64.4265 84.1234 64.8244C83.6792 65.2224 83.3228 65.7085 83.0769 66.2518C82.831 66.7951 82.7009 67.3837 82.695 67.98C82.695 70.9388 84.5288 72.1388 88.7625 73.98L91.23 75.0375C99.615 78.6338 104.355 82.2975 104.355 90.5363C104.355 99.42 97.3763 104.287 88.005 104.287C84.3537 104.52 80.713 103.691 77.5223 101.901C74.3317 100.11 71.7274 97.4342 70.0238 94.1963L78.0338 89.5312ZM43.1775 90.3863C44.7263 93.135 46.1363 95.46 49.5263 95.46C52.7663 95.46 54.8138 94.1925 54.8138 89.2612V55.71H64.68V89.3925C64.68 99.6075 58.68 104.257 49.9463 104.257C46.8591 104.426 43.7931 103.657 41.1513 102.051C38.5096 100.444 36.4157 98.0761 35.145 95.2575L43.1775 90.3863Z" fill="black"/>
   </g>

   <!--REACT--> 
   <g id="react">
    <g clip-path="url(#clip0_2_5870)">
    <path d="M92.9056 32.7028C91.7031 32.2887 90.4904 31.9051 89.2687 31.5524C89.4739 30.7107 89.6628 29.8792 89.8306 29.0624C92.5838 15.6484 90.7839 4.84184 84.6361 1.28381C78.7416 -2.12716 69.1016 1.42955 59.3659 9.93348C58.4064 10.7731 57.4682 11.6369 56.5522 12.524C55.9389 11.9341 55.3149 11.3556 54.6803 10.7889C44.4767 1.69623 34.2493 -2.13602 28.1081 1.43221C22.2189 4.8538 20.475 15.0127 22.9538 27.7254C23.2004 28.9845 23.4788 30.2371 23.7888 31.4819C22.3412 31.8948 20.9442 32.3342 19.6073 32.802C7.64443 36.9882 0.00476074 43.5483 0.00476074 50.353C0.00476074 57.3809 8.20629 64.4301 20.6662 68.7044C21.6763 69.0495 22.6949 69.3693 23.7209 69.6635C23.3877 71.0042 23.0918 72.3541 22.8337 73.7114C20.4706 86.2035 22.316 96.1224 28.1893 99.5223C34.2555 103.033 44.437 99.4248 54.3506 90.7268C55.1545 90.0197 55.9407 89.2925 56.7084 88.546C57.7004 89.5067 58.7189 90.4394 59.7627 91.343C69.366 99.6365 78.8502 102.985 84.7177 99.5763C90.7782 96.055 92.748 85.3995 90.1907 72.4357C89.9893 71.42 89.7634 70.4094 89.5132 69.4048C90.2282 69.1921 90.93 68.9733 91.6141 68.7456C104.567 64.4385 112.995 57.4748 112.995 50.353C112.995 43.5235 105.109 36.9191 92.9056 32.7028ZM90.0963 64.1474C89.4783 64.3525 88.8445 64.5506 88.1984 64.7433C86.7683 60.1996 84.8387 55.3684 82.4769 50.3764C84.7305 45.5036 86.586 40.7341 87.9759 36.2201C89.1319 36.5558 90.2534 36.9098 91.3347 37.2832C101.791 40.8962 108.169 46.2372 108.169 50.353C108.169 54.7367 101.281 60.4277 90.0963 64.1474ZM85.4557 73.3765C86.5865 79.1087 86.7476 84.2916 85.9986 88.3436C85.3259 91.9845 83.9727 94.4116 82.299 95.3839C78.7385 97.4526 71.1235 94.7637 62.911 87.6707C61.9401 86.8305 60.9927 85.9634 60.0699 85.0704C63.2539 81.5757 66.4358 77.5131 69.5412 73.0009C75.0036 72.5145 80.1641 71.7189 84.844 70.6332C85.0694 71.5426 85.2734 72.4574 85.4557 73.3765ZM38.5257 95.0264C35.0469 96.2592 32.2759 96.2947 30.6009 95.3254C27.0369 93.2625 25.5552 85.2981 27.5762 74.6151C27.8165 73.3527 28.0916 72.0973 28.4012 70.8502C33.0294 71.8779 38.1523 72.6168 43.6275 73.0625C46.7542 77.4777 50.0278 81.5358 53.3271 85.0894C52.6259 85.7704 51.9082 86.4339 51.1745 87.0793C46.7904 90.9253 42.3974 93.6541 38.5257 95.0264ZM22.2277 64.1204C16.7181 62.2302 12.168 59.7739 9.04931 57.0934C6.24661 54.6849 4.83202 52.2932 4.83202 50.353C4.83202 46.2235 10.9657 40.9564 21.1962 37.3767C22.4378 36.9426 23.7372 36.5328 25.0856 36.1483C26.4997 40.7642 28.3544 45.5905 30.5926 50.4708C28.3252 55.4233 26.4441 60.3267 25.0163 64.9971C24.0798 64.7278 23.15 64.4355 22.2277 64.1204ZM27.691 26.7947C25.5676 15.9031 26.9777 7.68712 30.5268 5.62504C34.3067 3.42873 42.6653 6.56017 51.4755 14.4116C52.05 14.9247 52.6152 15.4483 53.1708 15.982C49.8879 19.5201 46.6443 23.5481 43.5454 27.9372C38.2313 28.4315 33.1446 29.2254 28.4678 30.289C28.1797 29.1311 27.9206 27.9661 27.691 26.7952V26.7947ZM76.4301 38.874C75.3255 36.9589 74.1799 35.068 72.9941 33.2025C76.5992 33.6601 80.0533 34.2674 83.297 35.0098C82.3233 38.1426 81.1095 41.4176 79.6808 44.7754C78.6365 42.7867 77.5527 40.8192 76.4301 38.874ZM56.5544 19.4443C58.7806 21.8652 61.0104 24.5679 63.2036 27.5004C58.7546 27.2895 54.2982 27.2886 49.8491 27.4977C52.0445 24.5922 54.2932 21.8931 56.5544 19.4443ZM36.5511 38.9072C35.4425 40.8368 34.3789 42.792 33.3613 44.7714C31.956 41.4255 30.7532 38.1355 29.7712 34.9584C32.9949 34.2346 36.4328 33.6428 40.0149 33.1936C38.8159 35.0705 37.661 36.9754 36.5511 38.9067V38.9072ZM40.1178 67.857C36.4169 67.4424 32.9274 66.8811 29.7045 66.1768C30.702 62.943 31.9312 59.583 33.367 56.1653C34.3887 58.1462 35.4567 60.1026 36.57 62.0331C37.7149 64.0177 38.9005 65.9615 40.1178 67.857ZM56.6877 81.6027C54.3996 79.1256 52.1177 76.3848 49.8892 73.4372C52.0528 73.5223 54.2584 73.5657 56.5001 73.5657C58.8031 73.5657 61.0797 73.5139 63.3206 73.4138C61.1203 76.4145 58.8989 79.1592 56.6877 81.6027ZM79.7263 55.9908C81.2366 59.4461 82.5096 62.7884 83.5203 65.9668C80.2444 66.7172 76.7073 67.3214 72.9804 67.7702C74.1746 65.87 75.3311 63.9462 76.4491 61.9999C77.5858 60.0215 78.6784 58.018 79.7263 55.9908ZM72.268 59.5794C70.5565 62.5635 68.7487 65.491 66.8475 68.3571C63.4038 68.6019 59.9525 68.7235 56.5001 68.7217C52.9837 68.7217 49.5635 68.6118 46.27 68.3974C44.3193 65.5379 42.477 62.6053 40.7472 59.606H40.7476C39.0259 56.6225 37.4177 53.5745 35.9265 50.4686C37.4139 47.3619 39.0172 44.3125 40.733 41.3268L40.7326 41.3272C42.4478 38.3407 44.2753 35.4207 46.2113 32.5734C49.5715 32.3183 53.0172 32.1854 56.4996 32.1854H56.5001C59.9984 32.1854 63.4486 32.3196 66.8078 32.5765C68.7243 35.4195 70.5402 38.3295 72.2521 41.3011C73.9736 44.2802 75.5982 47.3148 77.1231 50.3999C75.6138 53.5166 73.9944 56.5784 72.268 59.5794ZM82.2253 5.48062C86.0087 7.67073 87.4803 16.5025 85.103 28.0842C84.9512 28.8231 84.7808 29.5758 84.5955 30.339C79.9072 29.2528 74.8169 28.4453 69.4874 27.9434C66.3828 23.506 63.1656 19.4718 59.9361 15.9793C60.7825 15.1605 61.6491 14.3628 62.5349 13.5872C70.8768 6.30147 78.6732 3.42474 82.2253 5.48062ZM56.5001 40.2264C62.0724 40.2264 66.5898 44.7603 66.5898 50.353C66.5898 55.9456 62.0724 60.4796 56.5001 60.4796C50.9278 60.4796 46.4104 55.9456 46.4104 50.353C46.4104 44.7603 50.9278 40.2264 56.5001 40.2264Z" fill="#00D8FF"/>
    </g>
    <defs>
    <clipPath id="clip0_2_5870">
    <rect width="113" height="101" fill="white"/>
    </clipPath>
    </defs>
   </g>

   <!--TS--> 
   <g id="ts">
      <rect width="40" height="260" x="3" y="5" fill="#1976d2"></rect>
      <polygon fill="#fff" points="27.49,22 14.227,22 14.227,25.264 18.984,25.264 18.984,40 22.753,40 22.753,25.264 27.49,25.264"></polygon>
      <path fill="#fff" d="M39.194,26.084c0,0-1.787-1.192-3.807-1.192s-2.747,0.96-2.747,1.986 c0,2.648,7.381,2.383,7.381,7.712c0,8.209-11.254,4.568-11.254,4.568V35.22c0,0,2.152,1.622,4.733,1.622s2.483-1.688,2.483-1.92 c0-2.449-7.315-2.449-7.315-7.878c0-7.381,10.658-4.469,10.658-4.469L39.194,26.084z"></path>
   </g>

   <!--REACT-TOOLKIT--> 
   <g id="reactToolkit" fill="#764ABC">
    <path d="M65.6 65.4c2.9-.3 5.1-2.8 5-5.8-.1-3-2.6-5.4-5.6-5.4h-.2c-3.1.1-5.5 2.7-5.4 5.8.1 1.5.7 2.8 1.6 3.7-3.4 6.7-8.6 11.6-16.4 15.7-5.3 2.8-10.8 3.8-16.3 3.1-4.5-.6-8-2.6-10.2-5.9-3.2-4.9-3.5-10.2-.8-15.5 1.9-3.8 4.9-6.6 6.8-8-.4-1.3-1-3.5-1.3-5.1-14.5 10.5-13 24.7-8.6 31.4 3.3 5 10 8.1 17.4 8.1 2 0 4-.2 6-.7 12.8-2.5 22.5-10.1 28-21.4z"/><path d="M83.2 53c-7.6-8.9-18.8-13.8-31.6-13.8H50c-.9-1.8-2.8-3-4.9-3h-.2c-3.1.1-5.5 2.7-5.4 5.8.1 3 2.6 5.4 5.6 5.4h.2c2.2-.1 4.1-1.5 4.9-3.4H52c7.6 0 14.8 2.2 21.3 6.5 5 3.3 8.6 7.6 10.6 12.8 1.7 4.2 1.6 8.3-.2 11.8-2.8 5.3-7.5 8.2-13.7 8.2-4 0-7.8-1.2-9.8-2.1-1.1 1-3.1 2.6-4.5 3.6 4.3 2 8.7 3.1 12.9 3.1 9.6 0 16.7-5.3 19.4-10.6 2.9-5.8 2.7-15.8-4.8-24.3z"/><path d="M32.4 67.1c.1 3 2.6 5.4 5.6 5.4h.2c3.1-.1 5.5-2.7 5.4-5.8-.1-3-2.6-5.4-5.6-5.4h-.2c-.2 0-.5 0-.7.1-4.1-6.8-5.8-14.2-5.2-22.2.4-6 2.4-11.2 5.9-15.5 2.9-3.7 8.5-5.5 12.3-5.6 10.6-.2 15.1 13 15.4 18.3 1.3.3 3.5 1 5 1.5-1.2-16.2-11.2-24.6-20.8-24.6-9 0-17.3 6.5-20.6 16.1-4.6 12.8-1.6 25.1 4 34.8-.5.7-.8 1.8-.7 2.9z"/>
   </g>

   <!--RTK-QUERY--> 
   <g id="rtkQuery" fill="#764ABC">
    <path d="M65.6 65.4c2.9-.3 5.1-2.8 5-5.8-.1-3-2.6-5.4-5.6-5.4h-.2c-3.1.1-5.5 2.7-5.4 5.8.1 1.5.7 2.8 1.6 3.7-3.4 6.7-8.6 11.6-16.4 15.7-5.3 2.8-10.8 3.8-16.3 3.1-4.5-.6-8-2.6-10.2-5.9-3.2-4.9-3.5-10.2-.8-15.5 1.9-3.8 4.9-6.6 6.8-8-.4-1.3-1-3.5-1.3-5.1-14.5 10.5-13 24.7-8.6 31.4 3.3 5 10 8.1 17.4 8.1 2 0 4-.2 6-.7 12.8-2.5 22.5-10.1 28-21.4z"/><path d="M83.2 53c-7.6-8.9-18.8-13.8-31.6-13.8H50c-.9-1.8-2.8-3-4.9-3h-.2c-3.1.1-5.5 2.7-5.4 5.8.1 3 2.6 5.4 5.6 5.4h.2c2.2-.1 4.1-1.5 4.9-3.4H52c7.6 0 14.8 2.2 21.3 6.5 5 3.3 8.6 7.6 10.6 12.8 1.7 4.2 1.6 8.3-.2 11.8-2.8 5.3-7.5 8.2-13.7 8.2-4 0-7.8-1.2-9.8-2.1-1.1 1-3.1 2.6-4.5 3.6 4.3 2 8.7 3.1 12.9 3.1 9.6 0 16.7-5.3 19.4-10.6 2.9-5.8 2.7-15.8-4.8-24.3z"/><path d="M32.4 67.1c.1 3 2.6 5.4 5.6 5.4h.2c3.1-.1 5.5-2.7 5.4-5.8-.1-3-2.6-5.4-5.6-5.4h-.2c-.2 0-.5 0-.7.1-4.1-6.8-5.8-14.2-5.2-22.2.4-6 2.4-11.2 5.9-15.5 2.9-3.7 8.5-5.5 12.3-5.6 10.6-.2 15.1 13 15.4 18.3 1.3.3 3.5 1 5 1.5-1.2-16.2-11.2-24.6-20.8-24.6-9 0-17.3 6.5-20.6 16.1-4.6 12.8-1.6 25.1 4 34.8-.5.7-.8 1.8-.7 2.9z"/>
   </g>

   <!--SASS--> 
   <g id="sass">
    <g clip-path="url(#clip0_2_5872)">
    <path d="M100.673 50.0767C96.603 50.0975 93.0653 51.0695 90.1035 52.5064C89.0162 50.3721 87.9295 48.4708 87.738 47.0761C87.5246 45.4494 87.2691 44.4561 87.5246 42.5122C87.7805 40.5683 88.9312 37.8002 88.9098 37.589C88.8887 37.3779 88.6538 36.3846 86.3098 36.3638C83.9658 36.3425 81.9413 36.8074 81.7068 37.42C81.4724 38.0326 81.025 39.4274 80.7266 40.8638C80.3216 42.9771 76.0386 50.5199 73.5881 54.4711C72.7993 52.9291 72.1174 51.5765 71.968 50.499C71.755 48.8723 71.4991 47.879 71.755 45.9351C72.0109 43.9912 73.1617 41.2235 73.1402 41.0119C73.1187 40.8008 72.8843 39.8075 70.5403 39.7867C68.1958 39.7654 66.1713 40.2303 65.9373 40.8429C65.7029 41.456 65.4469 42.8924 64.957 44.2871C64.4667 45.6818 58.7769 58.2751 57.2852 61.5285C56.6824 62.8454 56.0501 64.1487 55.3886 65.4376C55.3886 65.4376 55.3672 65.5011 55.3032 65.6067C55.0954 66.0108 54.8824 66.4123 54.6643 66.8111V66.8319C54.3444 67.4028 54.0035 67.9307 53.833 67.9307C53.705 67.9307 53.4706 66.4096 53.8755 64.3388C54.7278 59.9652 56.7524 53.1616 56.7313 52.9291C56.7313 52.8022 57.1148 51.6191 55.4101 51.0061C53.7475 50.3934 53.1511 51.4075 53.0017 51.4075C52.8527 51.4075 52.7458 51.7669 52.7458 51.7669C52.7458 51.7669 54.6003 44.1181 49.2085 44.1181C45.8417 44.1181 41.1958 47.7735 38.8943 51.0695C36.278 52.4812 33.6639 53.8969 31.052 55.3166C29.7953 56.014 28.4951 56.7114 27.2803 57.3661C27.1949 57.2818 27.1099 57.1758 27.0244 57.0915C20.5034 50.1823 8.442 45.3012 8.95339 36.0257C9.14534 32.645 10.3171 23.7705 32.1178 12.9948C50.0608 4.22589 64.3392 6.65555 66.8111 12.0437C70.3484 19.735 59.1608 34.0184 40.6204 36.0887C33.5455 36.8708 29.8373 34.1661 28.9 33.152C27.9197 32.0953 27.7703 32.0319 27.4079 32.2435C26.8115 32.5607 27.1949 33.5114 27.4079 34.0605C27.9622 35.497 30.2422 38.0326 34.0994 39.2796C37.5091 40.378 45.7988 40.9911 55.8361 37.1454C67.0666 32.8348 75.8466 20.8547 73.2682 10.8184C70.6893 0.633969 53.641 -2.7255 37.5091 2.95805C27.9197 6.33927 17.52 11.6635 10.0402 18.594C1.15363 26.8341 -0.253039 33.9971 0.322334 36.9977C2.38984 47.6466 17.2006 54.5771 23.1248 59.7115C22.8263 59.8805 22.5489 60.0287 22.3149 60.1556C19.3526 61.6133 8.05811 67.4658 5.24523 73.6569C2.04891 80.6717 5.75708 85.7009 8.20756 86.3765C15.8154 88.4686 23.6362 84.7077 27.8342 78.4953C32.0323 72.2834 31.5209 64.2119 29.5818 60.5144C29.5604 60.4723 29.5393 60.4297 29.4964 60.3876C30.2637 59.9439 31.052 59.479 31.8194 59.0354C33.2296 58.2088 34.6578 57.4127 36.1029 56.6475C35.3781 58.6127 34.8452 60.958 34.5897 64.3388C34.2698 68.3114 35.9105 73.4666 38.063 75.4947C39.0223 76.3829 40.1515 76.4037 40.8763 76.4037C43.3908 76.4037 44.5205 74.3329 45.7778 71.882C47.3119 68.8818 48.6971 65.3955 48.6971 65.3955C48.6971 65.3955 46.971 74.8191 51.6595 74.8191C53.3641 74.8191 55.0902 72.6215 55.8575 71.5018V71.5227C55.8575 71.5227 55.9 71.4592 55.9855 71.3115C56.156 71.0369 56.2624 70.8674 56.2624 70.8674V70.8257C56.9443 69.6422 58.4789 66.9588 60.7589 62.5005C63.6998 56.7535 66.5342 49.5697 66.5342 49.5697C66.5342 49.5697 66.7901 51.3232 67.6634 54.2391C68.1753 55.9506 69.2401 57.831 70.0929 59.6481C69.411 60.5992 68.9846 61.1271 68.9846 61.1271L69.0061 61.1484C68.4518 61.8666 67.8554 62.6482 67.1945 63.4095C64.8716 66.1558 62.1016 69.3046 61.7178 70.2127C61.2699 71.2902 61.3768 72.0723 62.2296 72.7062C62.8475 73.1711 63.9553 73.2341 65.085 73.1711C67.1735 73.0229 68.6437 72.5159 69.3681 72.1992C70.4978 71.7977 71.819 71.1846 73.0548 70.2761C75.3352 68.6068 76.72 66.2193 76.5925 63.0714C76.5285 61.3387 75.9531 59.6059 75.2498 57.9787C75.4632 57.6833 75.6547 57.3874 75.8681 57.0915C79.4693 51.8724 82.2612 46.1463 82.2612 46.1463C82.2612 46.1463 82.5171 47.8999 83.3905 50.8162C83.8168 52.2952 84.6907 53.9011 85.4575 55.4644C82.0693 58.1904 79.9807 61.3595 79.2349 63.4303C77.8926 67.276 78.9365 69.0083 80.9185 69.4097C81.8133 69.6 83.092 69.1773 84.0298 68.7758C85.2231 68.3956 86.6297 67.7409 87.9724 66.7685C90.2529 65.0996 92.4474 62.7751 92.3195 59.6272C92.2555 58.1904 91.8721 56.7743 91.3392 55.4009C94.2161 54.2183 97.9242 53.563 102.655 54.1122C112.799 55.2953 114.802 61.5707 114.418 64.2124C114.035 66.8532 111.904 68.2901 111.201 68.7337C110.497 69.1777 110.263 69.3254 110.327 69.6422C110.412 70.1071 110.753 70.0862 111.35 70.0015C112.181 69.8538 116.678 67.8673 116.869 63.0075C117.189 56.7956 111.222 50.0133 100.673 50.0767ZM22.4214 76.2347C19.0542 79.8688 14.3662 81.2422 12.3417 80.0804C10.1681 78.8334 11.0204 73.4666 15.1545 69.6213C17.669 67.276 20.9083 65.0992 23.0608 63.7683C23.5507 63.4724 24.2755 63.0501 25.1493 62.5218C25.2983 62.437 25.3838 62.3949 25.3838 62.3949L25.8952 62.0777C27.4078 67.5714 25.9591 72.4103 22.4214 76.2347ZM46.9285 59.7115C45.7563 62.5431 43.3058 69.7904 41.8141 69.3889C40.5354 69.0509 39.7466 63.5572 41.5582 58.1269C42.4745 55.4009 44.4136 52.147 45.5433 50.8796C47.3759 48.851 49.4005 48.1745 49.8904 48.9992C50.5087 50.0767 47.6529 57.9366 46.9285 59.7115ZM67.152 69.3042C66.6617 69.5579 66.1932 69.7269 65.9798 69.6C65.8308 69.5153 66.1932 69.1773 66.1932 69.1773C66.1932 69.1773 68.7292 66.473 69.7305 65.2473C70.3063 64.5291 70.9877 63.684 71.7125 62.7329V63.0075C71.7125 66.2406 68.5583 68.4169 67.1516 69.3042H67.152ZM82.7511 65.7757C82.3887 65.5219 82.4527 64.6768 83.6674 62.0356C84.1363 61.0002 85.2441 59.2679 87.1411 57.5986C87.3541 58.2746 87.5035 58.9299 87.4821 59.5425C87.4606 63.6206 84.5202 65.1417 82.7511 65.7757Z" fill="#CD6799"/>
    </g>
    <defs>
    <clipPath id="clip0_2_5872">
    <rect width="117" height="87" fill="white"/>
    </clipPath>
    </defs>
   </g>

   <!--GIT--> 
   <g id="git">
    <g clip-path="url(#clip0_2_5868)">
    <path d="M103.02 47.8219L57.1758 1.98038C54.5372 -0.6598 50.2552 -0.6598 47.6134 1.98038L38.0937 11.5001L50.1699 23.5763C52.9762 22.6281 56.1943 23.2642 58.4313 25.5012C60.6789 27.7525 61.3106 30.9981 60.3393 33.8134L71.9775 45.452C74.7932 44.482 78.0421 45.1095 80.291 47.3621C83.434 50.5039 83.434 55.596 80.291 58.7399C77.1471 61.8841 72.055 61.8841 68.9095 58.7399C66.5454 56.3733 65.9613 52.9013 67.1582 49.9888L56.3046 39.1352L56.3034 67.6973C57.0902 68.0863 57.8088 68.6002 58.4313 69.2189C61.5743 72.3607 61.5743 77.4532 58.4313 80.5995C55.2874 83.7422 50.1929 83.7422 47.0535 80.5995C43.9105 77.4532 43.9105 72.3611 47.0535 69.2193C47.8067 68.4658 48.7019 67.869 49.6871 67.4635V38.6352C48.7004 38.2324 47.8048 37.6353 47.0535 36.8793C44.6722 34.5013 44.0996 31.0071 45.3198 28.0831L33.4154 16.1775L1.98105 47.6099C-0.660352 50.2525 -0.660352 54.5349 1.98105 57.1755L47.8259 103.018C50.4652 105.658 54.7464 105.658 57.3891 103.018L103.019 57.3884C105.66 54.747 105.66 50.4621 103.019 47.8219" fill="#DE4C36"/>
    </g>
    <defs>
    <clipPath id="clip0_2_5868">
    <rect width="105" height="105" fill="white"/>
    </clipPath>
    </defs>
   </g>

   <!--REACT-ROUTER--> 
   <g id="reactRouter">
      <path d="M481.36 180C481.36 196.572 474.638 211.572 463.757 222.42C452.875 233.28 437.845 240 421.24 240C404.635 240 389.605 246.708 378.735 257.568C367.853 268.428 361.12 283.428 361.12 300C361.12 316.572 354.398 331.572 343.517 342.42C332.635 353.28 317.605 360 301 360C284.395 360 269.365 353.28 258.495 342.42C247.613 331.572 240.88 316.572 240.88 300C240.88 283.428 247.613 268.428 258.495 257.568C269.365 246.708 284.395 240 301 240C317.605 240 332.635 233.28 343.517 222.42C354.398 211.572 361.12 196.572 361.12 180C361.12 146.856 334.21 120 301 120C284.395 120 269.365 113.28 258.495 102.42C247.613 91.572 240.88 76.572 240.88 60C240.88 43.428 247.613 28.428 258.495 17.568C269.365 6.708 284.395 0 301 0C334.21 0 361.12 26.856 361.12 60C361.12 76.572 367.853 91.572 378.735 102.42C389.605 113.28 404.635 120 421.24 120C454.45 120 481.36 146.856 481.36 180Z" fill="#F44250"/>
      <path d="M240.88 180C240.88 146.862 213.963 120 180.76 120C147.557 120 120.64 146.862 120.64 180C120.64 213.137 147.557 240 180.76 240C213.963 240 240.88 213.137 240.88 180Z" fill="white"/>
      <path d="M120.64 300C120.64 266.863 93.7233 240 60.5199 240C27.3165 240 0.399902 266.863 0.399902 300C0.399902 333.138 27.3165 360 60.5199 360C93.7233 360 120.64 333.138 120.64 300Z" fill="white"/>
      <path d="M601.6 300C601.6 266.863 574.683 240 541.48 240C508.277 240 481.36 266.863 481.36 300C481.36 333.138 508.277 360 541.48 360C574.683 360 601.6 333.138 601.6 300Z" fill="white"/>
   </g>

   <!--VSCODE--> 
   <g id="vscode">
    <path d="M101.535 17.605L81.354 7.88899C80.2143 7.33948 78.9319 7.15814 77.6845 7.37011C76.4372 7.58208 75.2867 8.17686 74.3925 9.07199L8.32998 69.3C7.52845 70.0273 7.04865 71.0432 6.99614 72.1243C6.94363 73.2053 7.32271 74.2629 8.04998 75.0645C8.13748 75.159 8.22498 75.25 8.31948 75.334L13.713 80.234C14.4178 80.8754 15.3249 81.2497 16.277 81.2919C17.229 81.3341 18.1657 81.0416 18.9245 80.465L98.497 20.125C99.098 19.6689 99.8144 19.3897 100.566 19.3186C101.317 19.2476 102.073 19.3877 102.749 19.7231C103.424 20.0585 103.993 20.5758 104.391 21.217C104.789 21.8581 105 22.5975 105 23.352V23.1175C105 21.9656 104.675 20.8372 104.062 19.862C103.449 18.8868 102.573 18.1045 101.535 17.605Z" fill="#0065A9"/>
    <path d="M101.535 94.395L81.354 104.115C80.214 104.662 78.9319 104.843 77.6849 104.631C76.4379 104.419 75.2875 103.825 74.3925 102.932L8.32998 42.7C7.52845 41.9727 7.04865 40.9568 6.99614 39.8758C6.94363 38.7947 7.32271 37.7371 8.04998 36.9355C8.13748 36.841 8.22498 36.75 8.31948 36.666L13.713 31.766C14.4185 31.1219 15.3277 30.7459 16.2821 30.7037C17.2365 30.6615 18.1754 30.9557 18.935 31.535L98.497 91.875C99.098 92.3311 99.8144 92.6104 100.566 92.6814C101.317 92.7524 102.073 92.6123 102.749 92.2769C103.424 91.9415 103.993 91.4242 104.391 90.783C104.789 90.1419 105 89.4025 105 88.648V88.9C104.996 90.0488 104.669 91.1733 104.057 92.1451C103.444 93.1168 102.57 93.8965 101.535 94.395Z" fill="#007ACC"/>
    <path d="M81.354 104.115C80.214 104.662 78.932 104.843 77.685 104.631C76.438 104.419 75.2876 103.825 74.3925 102.932C74.8952 103.428 75.533 103.764 76.2261 103.899C76.9193 104.035 77.6369 103.962 78.289 103.691C78.9412 103.42 79.4988 102.963 79.8921 102.376C80.2855 101.79 80.4969 101.1 80.5 100.394V11.606C80.5006 10.8965 80.2906 10.2028 79.8966 9.61281C79.5026 9.02277 78.9424 8.56294 78.2868 8.29158C77.6313 8.02022 76.91 7.94953 76.2142 8.08846C75.5184 8.2274 74.8796 8.56971 74.3785 9.07204C75.2729 8.17723 76.4232 7.58242 77.6703 7.36986C78.9174 7.1573 80.1998 7.3375 81.34 7.88554L101.518 17.5875C102.559 18.0845 103.438 18.8658 104.054 19.8412C104.671 20.8166 104.998 21.9463 105 23.1V88.9C105 90.0528 104.675 91.1823 104.061 92.1582C103.448 93.1341 102.571 93.9168 101.532 94.416L81.354 104.115Z" fill="#1F9CF0"/>
   </g>

   <!--GITHUB--> 
   <g id="github">
    <path fill-rule="evenodd" clip-rule="evenodd" d="M44 0C19.69 0 0 19.69 0 44C0 63.47 12.595 79.915 30.085 85.745C32.285 86.13 33.11 84.81 33.11 83.655C33.11 82.61 33.055 79.145 33.055 75.46C22 77.495 19.14 72.765 18.26 70.29C17.765 69.025 15.62 65.12 13.75 64.075C12.21 63.25 10.01 61.215 13.695 61.16C17.16 61.105 19.635 64.35 20.46 65.67C24.42 72.325 30.745 70.455 33.275 69.3C33.66 66.44 34.815 64.515 36.08 63.415C26.29 62.315 16.06 58.52 16.06 41.69C16.06 36.905 17.765 32.945 20.57 29.865C20.13 28.765 18.59 24.255 21.01 18.205C21.01 18.205 24.695 17.05 33.11 22.715C36.63 21.725 40.37 21.23 44.11 21.23C47.85 21.23 51.59 21.725 55.11 22.715C63.525 16.995 67.21 18.205 67.21 18.205C69.63 24.255 68.09 28.765 67.65 29.865C70.455 32.945 72.16 36.85 72.16 41.69C72.16 58.575 61.875 62.315 52.085 63.415C53.68 64.79 55.055 67.43 55.055 71.555C55.055 77.44 55 82.17 55 83.655C55 84.81 55.825 86.185 58.025 85.745C66.7597 82.796 74.3497 77.1822 79.7268 69.6937C85.1039 62.2052 87.9974 53.219 88 44C88 19.69 68.31 0 44 0Z" fill="#FFFEFE"/>
   </g>

   <!--AXIOS--> 
   <g id="axios" >
      <path d="M93.295 3.65206L86.356 9.30495H90.8876V27.68L93.295 25.7411V3.65206Z" fill="#5A29E4"/>
      <path d="M95.295 24.0997L102.356 18.305H97.6975V0.350052L95.295 2.02275V24.0997Z" fill="#5A29E4"/>
      <path d="M182.695 6.95295C183.495 7.36895 184.071 7.72095 184.423 8.00895L186.919 3.25695C185.671 2.48895 184.167 1.80095 182.407 1.19295C180.679 0.584955 178.807 0.280952 176.791 0.280952C174.871 0.280952 173.095 0.600952 171.463 1.24095C169.863 1.88095 168.583 2.82495 167.623 4.07295C166.695 5.32095 166.231 6.87295 166.231 8.72895C166.231 10.809 166.887 12.409 168.199 13.529C169.543 14.617 171.591 15.513 174.343 16.217C176.551 16.793 178.327 17.321 179.671 17.801C181.047 18.249 181.735 19.001 181.735 20.057C181.735 21.625 180.263 22.409 177.319 22.409C175.847 22.409 174.455 22.233 173.143 21.881C171.831 21.529 170.679 21.097 169.687 20.585C168.727 20.073 168.039 19.609 167.623 19.193L165.031 24.233C166.695 25.289 168.599 26.121 170.743 26.729C172.887 27.337 175.047 27.641 177.223 27.641C179.111 27.641 180.871 27.385 182.503 26.873C184.135 26.329 185.447 25.465 186.439 24.281C187.463 23.065 187.975 21.4649 187.975 19.4809C187.975 17.8489 187.591 16.537 186.823 15.545C186.087 14.521 185.015 13.705 183.607 13.097C182.231 12.489 180.599 11.945 178.711 11.465C176.567 10.953 174.935 10.489 173.815 10.073C172.727 9.65695 172.183 8.95295 172.183 7.96095C172.183 6.26495 173.687 5.41695 176.695 5.41695C177.815 5.41695 178.903 5.57695 179.959 5.89695C181.015 6.18495 181.927 6.53695 182.695 6.95295Z" fill="#5A29E4"/>
      <path fill-rule="evenodd" clip-rule="evenodd" d="M132.182 27.497C130.07 27.497 128.15 27.129 126.422 26.393C124.694 25.625 123.205 24.601 121.957 23.321C120.709 22.009 119.749 20.537 119.077 18.905C118.406 17.273 118.069 15.593 118.069 13.865C118.069 12.105 118.421 10.409 119.125 8.77695C119.829 7.14495 120.822 5.70496 122.102 4.45695C123.382 3.17695 124.885 2.16895 126.613 1.43295C128.341 0.696953 130.229 0.328949 132.277 0.328949C134.389 0.328949 136.31 0.728952 138.038 1.52895C139.766 2.29695 141.238 3.33695 142.454 4.64895C143.702 5.92895 144.661 7.38495 145.333 9.01695C146.005 10.649 146.342 12.3129 146.342 14.0089C146.342 15.7689 145.99 17.465 145.286 19.097C144.582 20.697 143.589 22.137 142.309 23.417C141.061 24.665 139.574 25.657 137.846 26.393C136.118 27.129 134.23 27.497 132.182 27.497ZM123.925 13.913C123.925 15.353 124.262 16.729 124.934 18.041C125.605 19.321 126.549 20.361 127.765 21.161C129.013 21.961 130.501 22.361 132.229 22.361C133.989 22.361 135.477 21.945 136.693 21.113C137.91 20.249 138.837 19.177 139.477 17.8969C140.117 16.5849 140.438 15.241 140.438 13.865C140.438 12.425 140.102 11.0649 139.43 9.78495C138.758 8.50495 137.798 7.48095 136.549 6.71295C135.333 5.91295 133.878 5.51295 132.182 5.51295C130.422 5.51295 128.917 5.92895 127.669 6.76095C126.453 7.59295 125.525 8.64896 124.885 9.92896C124.245 11.209 123.925 12.537 123.925 13.913Z" fill="#5A29E4"/>
      <path fill-rule="evenodd" clip-rule="evenodd" d="M0 27.305L11.712 0.472954H16.464L28.128 27.305H21.984L19.296 21.017H8.88L6.192 27.305H0ZM14.112 7.52895L10.176 15.977H17.904L14.112 7.52895Z" fill="#5A29E4"/>
      <path d="M50.8211 0.472954L58.2131 9.97695L65.6051 0.472954H71.8931L61.2851 14.057L71.5571 27.305H65.2691L58.2131 18.185L51.2051 27.305H44.8211L55.1411 14.057L44.4851 0.472954H50.8211Z" fill="#5A29E4"/>
   </g>

   <!--REACT HOOK FORM--> 
   <g id="reactHookForm" >
      <path d="M157.995 8.5c10.08 0 19.206 4.087 25.812 10.692S194.5 34.924 194.5 45.003h0v111.994c0 10.08-4.086 19.206-10.692 25.812a36.39 36.39 0 0 1-25.813 10.691h0-112.99c-10.08 0-19.206-4.087-25.812-10.692S8.5 167.076 8.5 156.997h0V45.003c0-10.08 4.086-19.206 10.692-25.812A36.39 36.39 0 0 1 45.005 8.5h0z" stroke="#fff" stroke-width="17" fill="#ec5990"/><path d="M133.385 51.604h-20.868c-1.53-4.766-5.981-8.001-11.009-8.001s-9.479 3.235-11.009 8.001H69.616c-8.222 0-14.887 6.632-14.887 14.813v77.177c0 8.181 6.665 14.813 14.887 14.813h63.769c8.222 0 14.887-6.632 14.887-14.813V66.417c0-8.181-6.665-14.813-14.887-14.813h0zM91.54 54.297a1.35 1.35 0 0 0 1.353-1.064c.886-4.046 4.486-6.932 8.648-6.932s7.762 2.885 8.648 6.932a1.35 1.35 0 0 0 1.353 1.064h7.281v8.821c0 2.231-1.818 4.04-4.06 4.04H88.305c-2.242 0-4.06-1.809-4.06-4.04v-8.821h7.294zm54.025 89.297c0 6.694-5.453 12.12-12.18 12.12H69.616c-6.727 0-12.18-5.426-12.18-12.12V66.417c0-6.694 5.453-12.12 12.18-12.12h11.923v8.821c0 3.719 3.03 6.733 6.767 6.733h26.39c3.737 0 6.767-3.015 6.767-6.733v-8.821h11.923c6.727 0 12.18 5.426 12.18 12.12v77.177zm-14.833-47.981h-23.819a1.35 1.35 0 0 0-1.353 1.347 1.35 1.35 0 0 0 1.353 1.347h23.819a1.35 1.35 0 0 0 1.353-1.347 1.35 1.35 0 0 0-1.353-1.347h0zm-35.186 0H71.727a1.35 1.35 0 0 0-1.353 1.347 1.35 1.35 0 0 0 1.353 1.347h23.819a1.35 1.35 0 0 0 1.353-1.347 1.35 1.35 0 0 0-1.353-1.347h0zm35.254 32.589h-23.886a1.35 1.35 0 0 0-1.353 1.347 1.35 1.35 0 0 0 1.353 1.347H130.8a1.35 1.35 0 0 0 1.353-1.347 1.35 1.35 0 0 0-1.353-1.347h0zm-35.187 0H71.727a1.35 1.35 0 0 0-1.353 1.347 1.35 1.35 0 0 0 1.353 1.347h23.886a1.35 1.35 0 0 0 1.353-1.347 1.35 1.35 0 0 0-1.353-1.347h0z" fill="#fff"/>
   </g>

   <!--RTK-QUERY--> 
   <g id="redux" fill="#764ABC">
    <path d="M65.6 65.4c2.9-.3 5.1-2.8 5-5.8-.1-3-2.6-5.4-5.6-5.4h-.2c-3.1.1-5.5 2.7-5.4 5.8.1 1.5.7 2.8 1.6 3.7-3.4 6.7-8.6 11.6-16.4 15.7-5.3 2.8-10.8 3.8-16.3 3.1-4.5-.6-8-2.6-10.2-5.9-3.2-4.9-3.5-10.2-.8-15.5 1.9-3.8 4.9-6.6 6.8-8-.4-1.3-1-3.5-1.3-5.1-14.5 10.5-13 24.7-8.6 31.4 3.3 5 10 8.1 17.4 8.1 2 0 4-.2 6-.7 12.8-2.5 22.5-10.1 28-21.4z"/><path d="M83.2 53c-7.6-8.9-18.8-13.8-31.6-13.8H50c-.9-1.8-2.8-3-4.9-3h-.2c-3.1.1-5.5 2.7-5.4 5.8.1 3 2.6 5.4 5.6 5.4h.2c2.2-.1 4.1-1.5 4.9-3.4H52c7.6 0 14.8 2.2 21.3 6.5 5 3.3 8.6 7.6 10.6 12.8 1.7 4.2 1.6 8.3-.2 11.8-2.8 5.3-7.5 8.2-13.7 8.2-4 0-7.8-1.2-9.8-2.1-1.1 1-3.1 2.6-4.5 3.6 4.3 2 8.7 3.1 12.9 3.1 9.6 0 16.7-5.3 19.4-10.6 2.9-5.8 2.7-15.8-4.8-24.3z"/><path d="M32.4 67.1c.1 3 2.6 5.4 5.6 5.4h.2c3.1-.1 5.5-2.7 5.4-5.8-.1-3-2.6-5.4-5.6-5.4h-.2c-.2 0-.5 0-.7.1-4.1-6.8-5.8-14.2-5.2-22.2.4-6 2.4-11.2 5.9-15.5 2.9-3.7 8.5-5.5 12.3-5.6 10.6-.2 15.1 13 15.4 18.3 1.3.3 3.5 1 5 1.5-1.2-16.2-11.2-24.6-20.8-24.6-9 0-17.3 6.5-20.6 16.1-4.6 12.8-1.6 25.1 4 34.8-.5.7-.8 1.8-.7 2.9z"/>
   </g>

   <!--STORYBOOK--> 
   <g id="storybook" width="800px" height="800px" viewBox="-31.5 0 319 319" version="1.1" xmlns="http://www.w3.org/2000/svg" xmlns:xlink="http://www.w3.org/1999/xlink" preserveAspectRatio="xMidYMid">
    <defs>
        <path d="M9.87245893,293.324145 L0.0114611411,30.5732167 C-0.314208957,21.8955842 6.33948896,14.5413918 15.0063196,13.9997149 L238.494389,0.0317105427 C247.316188,-0.519651867 254.914637,6.18486163 255.466,15.0066607 C255.486773,15.339032 255.497167,15.6719708 255.497167,16.0049907 L255.497167,302.318596 C255.497167,311.157608 248.331732,318.323043 239.492719,318.323043 C239.253266,318.323043 239.013844,318.317669 238.774632,318.306926 L25.1475605,308.712253 C16.8276309,308.338578 10.1847994,301.646603 9.87245893,293.324145 L9.87245893,293.324145 Z" id="path-1">

</path>
    </defs>
		<g>
				<mask id="mask-2" fill="white">
						<use xlink:href="#path-1">

</use>
				</mask>
				<use fill="#FF4785" fill-rule="nonzero" xlink:href="#path-1">

</use>
				<path d="M188.665358,39.126973 L190.191903,2.41148534 L220.883535,0 L222.205755,37.8634126 C222.251771,39.1811466 221.22084,40.2866846 219.903106,40.3327009 C219.338869,40.3524045 218.785907,40.1715096 218.342409,39.8221376 L206.506729,30.4984116 L192.493574,41.1282444 C191.443077,41.9251106 189.945493,41.7195021 189.148627,40.6690048 C188.813185,40.2267976 188.6423,39.6815326 188.665358,39.126973 Z M149.413703,119.980309 C149.413703,126.206975 191.355678,123.222696 196.986019,118.848893 C196.986019,76.4467826 174.234041,54.1651411 132.57133,54.1651411 C90.9086182,54.1651411 67.5656805,76.7934542 67.5656805,110.735941 C67.5656805,169.85244 147.345341,170.983856 147.345341,203.229219 C147.345341,212.280549 142.913138,217.654777 133.162291,217.654777 C120.456641,217.654777 115.433477,211.165914 116.024438,189.103298 C116.024438,184.317101 67.5656805,182.824962 66.0882793,189.103298 C62.3262146,242.56887 95.6363019,257.990394 133.753251,257.990394 C170.688279,257.990394 199.645341,238.303123 199.645341,202.663511 C199.645341,139.304202 118.683759,141.001326 118.683759,109.604526 C118.683759,96.8760922 128.139127,95.178968 133.753251,95.178968 C139.662855,95.178968 150.300143,96.2205679 149.413703,119.980309 Z" fill="#FFFFFF" fill-rule="nonzero" mask="url(#mask-2)">

</path>
		</g></g>

    <!--MUI--> 
   <g id="mui"  width="24" height="24">
    <path fill="#0073E6" fill-rule="evenodd" d="M24 5.601V1.592a.344.344 0 0 0-.514-.298l-2.64 1.508a.688.688 0 0 0-.346.597v4.009c0 .264.285.43.514.298l2.64-1.508A.688.688 0 0 0 24 5.6ZM.515 1.295l7.643 4.383a.688.688 0 0 0 .684 0l7.643-4.383a.344.344 0 0 1 .515.298v12.03c0 .235-.12.453-.319.58l-4.65 2.953 3.11 1.832c.22.13.495.127.713-.009l4.61-2.878a.344.344 0 0 0 .161-.292v-4.085c0-.254.14-.486.362-.606l2.507-1.346a.344.344 0 0 1 .506.303v7.531c0 .244-.13.47-.34.593l-7.834 4.592a.688.688 0 0 1-.71-.009l-5.953-3.681A.344.344 0 0 1 9 18.808v-3.624c0-.115.057-.222.153-.286l4.04-2.694a.688.688 0 0 0 .307-.572v-4.39a.137.137 0 0 0-.208-.117l-4.44 2.664a.688.688 0 0 1-.705.002L3.645 7.123a.138.138 0 0 0-.208.118v7.933a.344.344 0 0 1-.52.295L.5 14.019C.19 13.833 0 13.497 0 13.135V1.593c0-.264.286-.43.515-.298Z" clip-rule="evenodd"/>
    </g>

     <!--RADIX UI--> 
   <g id="radix" >
    <path d="M12 25a8 8 0 1 1 0-16v16zM12 0H4v8h8V0zM17 8a4 4 0 1 0 0-8 4 4 0 0 0 0 8z" fill="white"/>
    </g>

    <!--SWAGGER--> 
   <g id="swagger" >
    <path d="M30,16a14,14,0,1,1-4.1-9.9A13.956,13.956,0,0,1,30,16Z" style="fill:#fff"/><path d="M27.9,16a11.9,11.9,0,1,1-3.485-8.415A11.863,11.863,0,0,1,27.9,16Z" style="fill:#6d9a00"/><path d="M11.66,15.983a.938.938,0,0,1,.977-.976.976.976,0,1,1-.977.976Z" style="fill:#fff"/><path d="M15.031,15.983a.938.938,0,0,1,.977-.976.976.976,0,1,1-.977.976Z" style="fill:#fff"/><path d="M18.4,15.983a.938.938,0,0,1,.977-.976.976.976,0,1,1-.977.976Z" style="fill:#fff"/><path d="M7.619,16.89V15.142A2.824,2.824,0,0,0,8.5,15a1.126,1.126,0,0,0,.439-.441,2.1,2.1,0,0,0,.254-.776,9.08,9.08,0,0,0,.055-1.216,10.547,10.547,0,0,1,.123-1.97,1.847,1.847,0,0,1,.446-.9,1.72,1.72,0,0,1,.81-.552,4.788,4.788,0,0,1,1.316-.131h.363v1.437a3.177,3.177,0,0,0-.977.091.63.63,0,0,0-.319.277,3.372,3.372,0,0,0-.1.941q0,.459-.062,1.741a4.639,4.639,0,0,1-.178,1.169,2.435,2.435,0,0,1-.367.739,2.939,2.939,0,0,1-.682.6,2.432,2.432,0,0,1,.662.579,2.377,2.377,0,0,1,.394.8,5.8,5.8,0,0,1,.178,1.267q.048,1.209.048,1.544a3.034,3.034,0,0,0,.11.932.694.694,0,0,0,.333.288,2.927,2.927,0,0,0,.963.1v1.486h-.363a3.843,3.843,0,0,1-1.292-.192A1.905,1.905,0,0,1,9.82,22.3a1.875,1.875,0,0,1-.456-.9,8.724,8.724,0,0,1-.117-1.686,8.414,8.414,0,0,0-.11-1.741,1.553,1.553,0,0,0-.456-.834A2.106,2.106,0,0,0,7.619,16.89Z" style="fill:#fff"/><path d="M23.285,17.143a1.553,1.553,0,0,0-.456.834,8.414,8.414,0,0,0-.11,1.741A8.724,8.724,0,0,1,22.6,21.4a1.875,1.875,0,0,1-.456.9,1.905,1.905,0,0,1-.833.521,3.843,3.843,0,0,1-1.292.192h-.363V21.53a2.927,2.927,0,0,0,.963-.1.694.694,0,0,0,.333-.288,3.034,3.034,0,0,0,.11-.932q0-.335.048-1.544A5.8,5.8,0,0,1,21.29,17.4a2.377,2.377,0,0,1,.394-.8,2.432,2.432,0,0,1,.662-.579,2.939,2.939,0,0,1-.682-.6,2.435,2.435,0,0,1-.367-.739,4.639,4.639,0,0,1-.178-1.169q-.062-1.282-.062-1.741a3.372,3.372,0,0,0-.1-.941.63.63,0,0,0-.319-.277,3.177,3.177,0,0,0-.977-.091V9.016h.363a4.788,4.788,0,0,1,1.316.131,1.72,1.72,0,0,1,.81.552,1.847,1.847,0,0,1,.446.9,10.547,10.547,0,0,1,.123,1.97,9.08,9.08,0,0,0,.055,1.216,2.1,2.1,0,0,0,.254.776,1.126,1.126,0,0,0,.439.441,2.824,2.824,0,0,0,.883.144V16.89A2.106,2.106,0,0,0,23.285,17.143Z" style="fill:#fff"/>
    </g>

    <g id="styled" >
   <path d="m18.05 29.6c.042-.095.148-.161.225-.241 1.175-1.232 2.36-2.453 3.519-3.7a3.2 3.2 0 0 0 1.014-2.659 5.925 5.925 0 0 0 -.143-.624c-.316.3-.61.573-.906.848-.46.428-.918.858-1.382 1.281a1.931 1.931 0 0 1 -2.148.419 1.973 1.973 0 0 1 -1.29-1.75 1.04 1.04 0 0 0 -.043-.146c-.353.3-.691.576-1.026.86l-6.963 5.9c-.048.041-.1.092-.145.132h9.283l-.014-.009c-.05-.035-.024-.219.019-.311z" fill="#ffcebf"/><path d="m8.337 29.6a1.239 1.239 0 0 1 .295-.276l9.636-8.175q.986-.837 1.963-1.683a.523.523 0 0 0 .182-.224 5.364 5.364 0 0 0 .065-2.069c-.1.07-.154.1-.2.149-.789.706-1.574 1.418-2.367 2.12a1.762 1.762 0 0 1 -2.048.329 1.889 1.889 0 0 1 -1.08-1.807c0-.085 0-.169 0-.324-.145.106-.251.177-.35.257q-5.785 4.632-11.568 9.257c-.174.139-.382.449-.61.148s.119-.425.294-.565q6.165-4.947 12.336-9.885c.67-.537.714-.762.278-1.615l-.26.244c-.713.663-1.434 1.317-2.136 1.991a2.121 2.121 0 0 1 -3.585-1.337c-.133.1-.248.173-.357.258l-6.1 4.728a1.485 1.485 0 0 1 -.356.258.446.446 0 0 1 -.3-.015v8.561h6.256a.365.365 0 0 1 .012-.325z" fill="#ffcebf"/><path d="m25.237 2.423c-.17.557-.335 1.115-.484 1.678a1.688 1.688 0 0 0 .9 2.09 7.122 7.122 0 0 0 3.818.8v-4.473a.73.73 0 0 1 .016-.294.666.666 0 0 1 .105-.149h-4.359c.067.078.044.215.004.348z" fill="#ff6196"/><g fill="#ff87af"><path d="m16.482 12.032a2.422 2.422 0 0 1 -.5 1.376 22.671 22.671 0 0 1 -3.726 3.792 1.442 1.442 0 0 1 -1.684.2 1.393 1.393 0 0 1 -.843-1.368 1.624 1.624 0 0 1 .417-.947 35.848 35.848 0 0 1 5.019-3.993.71.71 0 0 1 .829-.034 1.041 1.041 0 0 1 .488.974z"/><path d="m15.284 18.093a1.437 1.437 0 0 1 .448-1.2 38.336 38.336 0 0 1 4.87-3.813c.052-.033.1-.066.157-.1a.837.837 0 0 1 1.025.035.861.861 0 0 1 .242.979 4.39 4.39 0 0 1 -1.168 1.908c-1.105 1.1-2.252 2.164-3.4 3.22a1.124 1.124 0 0 1 -1.364.192 1.512 1.512 0 0 1 -.81-1.221z"/><path d="m22.5 18.754c-.28.3-.568.586-.837.893a1.89 1.89 0 0 0 -.2.38c.148.044.321.16.441.119.611-.205 1.207-.451 1.878-.71-.146.336-.256.646-.411.93a12.189 12.189 0 0 1 -2.371 2.872q-.532.513-1.105.981a1.484 1.484 0 0 1 -2.415-.92 1.1 1.1 0 0 1 .238-.813 22.187 22.187 0 0 1 4.623-3.823.193.193 0 0 1 .065-.013z"/></g><path d="m24.794 14.771 1.711-7.6 1.2.281-.619 1.881c-.578 1.75-1.163 3.5-1.727 5.252-.11.324-.254.384-.565.186z" fill="#ff6196"/><path d="m22.862 19.241c.181-.691.361-1.33.513-1.976a4.468 4.468 0 0 1 .826-1.721c.243-.319.516-.192.795-.123.258.063.323.252.334.5a2.845 2.845 0 0 1 -.588 1.907 4.8 4.8 0 0 1 -1.88 1.413z" fill="#ff6196"/><path d="m29.993 2.894a3.623 3.623 0 0 0 -.017-.668.291.291 0 0 0 -.116-.151.381.381 0 0 0 -.152-.075c-.032-.006-.077.027-.12.074a.666.666 0 0 0 -.105.149.73.73 0 0 0 -.016.294v4.472a7.122 7.122 0 0 1 -3.818-.8 1.688 1.688 0 0 1 -.9-2.09c.149-.563.314-1.121.484-1.678.04-.133.063-.27 0-.348a.2.2 0 0 0 -.135-.064.3.3 0 0 0 -.182.064.434.434 0 0 0 -.171.19c-.2.6-.376 1.206-.529 1.818a2.148 2.148 0 0 0 -.046.737 2.339 2.339 0 0 0 1.542 2c.189.079.3.157.247.406-.073.316-.144.632-.216.949q-.735 3.222-1.462 6.447a.483.483 0 0 1 -.121.257 3.228 3.228 0 0 0 -.791.92 4.8 4.8 0 0 0 -.53 1.5.981.981 0 0 1 -.558.785c-.417.211-.8.484-1.263.768a12.639 12.639 0 0 0 -.018-1.671 1.062 1.062 0 0 1 .284-.96 4.75 4.75 0 0 0 1.258-2.194 1.294 1.294 0 0 0 -1.208-1.7 1.7 1.7 0 0 0 -.929.264c-.957.646-1.888 1.332-2.812 2.026-.547.412-1.062.868-1.592 1.3a.418.418 0 0 1 -.059-.081.842.842 0 0 0 -.059-.214c-.443-.684-.136-1.181.345-1.692a2.793 2.793 0 0 0 .772-1.951 1.568 1.568 0 0 0 -.327-1.026 1.459 1.459 0 0 0 -.438-.363 1.337 1.337 0 0 0 -1.517.162l-.279.2c-.637.456-1.282.9-1.895 1.388-.895.712-1.769 1.454-2.626 2.214-.4.353-.692.835-1.107 1.163-2.164 1.709-4.351 3.387-6.53 5.076a1.022 1.022 0 0 0 -.205.161.164.164 0 0 0 -.016.029c-.046.107-.085.284-.031.349a.141.141 0 0 0 .047.033.446.446 0 0 0 .3.015 1.485 1.485 0 0 0 .356-.258l6.1-4.728c.109-.085.224-.162.357-.258a2.121 2.121 0 0 0 3.585 1.337c.7-.674 1.423-1.328 2.136-1.991l.26-.244c.436.853.392 1.078-.278 1.615q-6.176 4.942-12.343 9.886c-.175.14-.521.267-.294.565s.436-.009.61-.148q5.786-4.621 11.564-9.254c.1-.08.205-.151.35-.257v.324a1.889 1.889 0 0 0 1.08 1.807 1.762 1.762 0 0 0 2.048-.329c.793-.7 1.578-1.414 2.367-2.12.05-.045.108-.079.2-.149a5.364 5.364 0 0 1 -.065 2.069.523.523 0 0 1 -.182.224q-.978.845-1.963 1.683l-9.632 8.176a1.239 1.239 0 0 0 -.295.276.365.365 0 0 0 -.012.321.376.376 0 0 0 .32.063.294.294 0 0 0 .116-.065c.05-.04.1-.091.145-.132l6.963-5.9c.335-.284.673-.564 1.026-.86a1.04 1.04 0 0 1 .043.146 1.973 1.973 0 0 0 1.29 1.75 1.931 1.931 0 0 0 2.148-.419c.464-.423.922-.853 1.382-1.281.3-.275.59-.551.906-.848a5.925 5.925 0 0 1 .143.624 3.2 3.2 0 0 1 -1.014 2.649c-1.159 1.248-2.344 2.469-3.519 3.7-.077.08-.183.146-.225.241s-.069.281-.019.321l.014.009a.573.573 0 0 0 .338.051.136.136 0 0 0 .081-.051c.028-.029.055-.065.082-.092.952-.984 1.909-1.963 2.854-2.954a13.982 13.982 0 0 0 1.074-1.223 3.411 3.411 0 0 0 .61-3.616.516.516 0 0 1 .074-.386c.065-.112.137-.221.211-.329a4.632 4.632 0 0 0 .587-1 7.547 7.547 0 0 1 1.339-2.4 2.792 2.792 0 0 0 .5-2.469.988.988 0 0 1 0-.489c.506-1.567 1.027-3.129 1.543-4.692q.347-1.05.69-2.094l.213-.647c.454 0 .882-.009 1.308 0 .354.01.462-.156.458-.5-.021-1.38-.013-2.759-.013-4.138zm-17.737 14.306a1.442 1.442 0 0 1 -1.684.2 1.393 1.393 0 0 1 -.843-1.368 1.624 1.624 0 0 1 .417-.947 35.848 35.848 0 0 1 5.019-3.993.852.852 0 0 1 .326-.14.656.656 0 0 1 .238 0 .763.763 0 0 1 .265.106 1.041 1.041 0 0 1 .488.975 2.422 2.422 0 0 1 -.5 1.376 22.671 22.671 0 0 1 -3.726 3.791zm5.2 1.929a1.124 1.124 0 0 1 -1.364.192 1.512 1.512 0 0 1 -.81-1.224 1.437 1.437 0 0 1 .448-1.2 38.336 38.336 0 0 1 4.87-3.813c.052-.033.1-.066.157-.1a.837.837 0 0 1 1.025.035.861.861 0 0 1 .242.979 4.39 4.39 0 0 1 -1.168 1.908c-1.103 1.102-2.25 2.163-3.398 3.219zm5.911 1.241a12.189 12.189 0 0 1 -2.367 2.868q-.532.513-1.105.981a1.484 1.484 0 0 1 -2.415-.92 1.1 1.1 0 0 1 .238-.813 22.187 22.187 0 0 1 4.623-3.823.193.193 0 0 1 .065-.013l.1.1c-.28.3-.568.586-.837.893a1.89 1.89 0 0 0 -.2.38c.148.044.321.16.441.119.483-.162.958-.35 1.467-.55l.411-.16c-.154.34-.264.65-.419.934zm1.373-2.535a4.363 4.363 0 0 1 -1.373 1.152q-.247.138-.507.258c.178-.681.356-1.312.507-1.95l.006-.026a4.468 4.468 0 0 1 .826-1.721c.243-.319.516-.192.795-.123.258.063.323.252.334.5a2.845 2.845 0 0 1 -.586 1.906zm2.34-8.5c-.578 1.75-1.163 3.5-1.727 5.252-.106.329-.25.389-.561.191l1.483-6.593.228-1.012 1.2.281c-.082.247-.161.49-.241.731z"/>
   </g>
      

   <!--SOCIALNETWORC-->

   <!--GITHUB--> 
   <g id="githublogo">
    <path fill-rule="evenodd" clip-rule="evenodd" d="M15 0C6.7125 0 0 6.7125 0 15C0 21.6375 4.29375 27.2437 10.2563 29.2313C11.0063 29.3625 11.2875 28.9125 11.2875 28.5188C11.2875 28.1625 11.2688 26.9813 11.2688 25.725C7.5 26.4188 6.525 24.8062 6.225 23.9625C6.05625 23.5312 5.325 22.2 4.6875 21.8438C4.1625 21.5625 3.4125 20.8687 4.66875 20.85C5.85 20.8313 6.69375 21.9375 6.975 22.3875C8.325 24.6562 10.4812 24.0187 11.3438 23.625C11.475 22.65 11.8688 21.9937 12.3 21.6187C8.9625 21.2437 5.475 19.95 5.475 14.2125C5.475 12.5813 6.05625 11.2313 7.0125 10.1813C6.8625 9.80625 6.3375 8.26875 7.1625 6.20625C7.1625 6.20625 8.41875 5.8125 11.2875 7.74375C12.4875 7.40625 13.7625 7.2375 15.0375 7.2375C16.3125 7.2375 17.5875 7.40625 18.7875 7.74375C21.6562 5.79375 22.9125 6.20625 22.9125 6.20625C23.7375 8.26875 23.2125 9.80625 23.0625 10.1813C24.0188 11.2313 24.6 12.5625 24.6 14.2125C24.6 19.9688 21.0938 21.2437 17.7563 21.6187C18.3 22.0875 18.7688 22.9875 18.7688 24.3937C18.7688 26.4 18.75 28.0125 18.75 28.5188C18.75 28.9125 19.0312 29.3813 19.7812 29.2313C22.759 28.2259 25.3465 26.3121 27.1796 23.7592C29.0127 21.2063 29.9991 18.1429 30 15C30 6.7125 23.2875 0 15 0Z" fill="#A7A7A7"/>
   </g>

   <!--TELEGRAM--> 
   <g id="telegram">
      <path  d="M24 48C37.2548 48 48 37.2548 48 24C48 10.7452 37.2548 0 24 0C10.7452 0 0 10.7452 0 24C0 37.2548 10.7452 48 24 48Z" fill="#A7A7A7"/>
      <path d="M8.93822 25.174C11.7438 23.6286 14.8756 22.3388 17.8018 21.0424C22.836 18.919 27.8902 16.8324 32.9954 14.8898C33.9887 14.5588 35.7734 14.2351 35.9484 15.7071C35.8526 17.7907 35.4584 19.8621 35.188 21.9335C34.5017 26.4887 33.7085 31.0283 32.935 35.5685C32.6685 37.0808 30.774 37.8637 29.5618 36.8959C26.6486 34.9281 23.713 32.9795 20.837 30.9661C19.8949 30.0088 20.7685 28.6341 21.6099 27.9505C24.0093 25.5859 26.5539 23.5769 28.8279 21.0901C29.4413 19.6088 27.6289 20.8572 27.0311 21.2397C23.7463 23.5033 20.5419 25.9051 17.0787 27.8945C15.3097 28.8683 13.2479 28.0361 11.4797 27.4927C9.89428 26.8363 7.57106 26.175 8.93806 25.1741L8.93822 25.174Z" fill="black"/>
   </g>

   <!--LINKEDLN--> 
   <g id="linkedln">
       <path d="M15 0.599976C7.04698 0.599976 0.599976 7.04698 0.599976 15C0.599976 22.953 7.04698 29.4 15 29.4C22.953 29.4 29.4 22.953 29.4 15C29.4 7.04698 22.953 0.599976 15 0.599976ZM11.475 20.9685H8.55898V11.5845H11.475V20.9685ZM9.99898 10.4325C9.07798 10.4325 8.48248 9.77997 8.48248 8.97297C8.48248 8.14948 9.09598 7.51648 10.0365 7.51648C10.977 7.51648 11.553 8.14948 11.571 8.97297C11.571 9.77997 10.977 10.4325 9.99898 10.4325ZM22.125 20.9685H19.209V15.768C19.209 14.5575 18.786 13.7355 17.7315 13.7355C16.926 13.7355 16.4475 14.292 16.236 14.8275C16.158 15.018 16.1385 15.288 16.1385 15.5565V20.967H13.221V14.577C13.221 13.4055 13.1835 12.426 13.1445 11.583H15.678L15.8115 12.8865H15.87C16.254 12.2745 17.1945 11.3715 18.768 11.3715C20.6865 11.3715 22.125 12.657 22.125 15.42V20.9685Z" fill="#A7A7A7"/>
   </g>

   <!--arrows-->
   <g id="arrowsGoTop">
      <path d="M6.80722 4.2806V15H9.19278V4.2806L14.3134 9.08118L16 7.5L8 0L0 7.5L1.6866 9.08118L6.80722 4.2806Z" fill="white"/>
   </g>


   <!--Feedback viewBox="0 0 64 64"-->
   <g id="feedback">
    <path d="M42.83,3.5H21.17a6,6,0,0,0-6,6V28.66a6,6,0,0,0,6,6H23.4l7.84,9.23a1,1,0,0,0,1.1.29.992.992,0,0,0,.66-.94V34.66h9.83a6,6,0,0,0,6-6V9.5A6,6,0,0,0,42.83,3.5Zm4,25.16a4,4,0,0,1-4,4H32a1,1,0,0,0-1,1v6.86l-6.38-7.51a1.011,1.011,0,0,0-.76-.35H21.17a4,4,0,0,1-4-4V9.5a4,4,0,0,1,4-4H42.83a4,4,0,0,1,4,4Z" fill="#13B0F5"/>
    <path d="M44.66,10.75a1,1,0,0,1-1,1H20.34a1,1,0,0,1,0-2H43.66A1,1,0,0,1,44.66,10.75Z" fill="#13B0F5"/>
    <path d="M44.66,14.92a1,1,0,0,1-1,1H20.34a1,1,0,0,1,0-2H43.66A.99.99,0,0,1,44.66,14.92Z" fill="#13B0F5"/>
    <path d="M44.66,19.08a1,1,0,0,1-1,1H20.34a1,1,0,0,1,0-2H43.66A1,1,0,0,1,44.66,19.08Z" fill="#13B0F5"/>
    <path d="M44.66,23.25a1,1,0,0,1-1,1H28.67a1,1,0,0,1,0-2H43.66A.99.99,0,0,1,44.66,23.25Z" fill="#13B0F5"/>
    <path d="M44.66,27.41a1,1,0,0,1-1,1H28.67a1,1,0,0,1,0-2H43.66A1,1,0,0,1,44.66,27.41Z" fill="#13B0F5"/>
    <path d="M18.65,46.55a1.009,1.009,0,0,0-.95-.69H13.57l-1.28-3.93a1,1,0,0,0-1.9,0L9.11,45.86H4.98a1,1,0,0,0-.59,1.81L7.73,50.1,6.46,54.02a1,1,0,0,0,.95,1.31A1.01,1.01,0,0,0,8,55.14l3.34-2.43,3.34,2.43a1,1,0,0,0,1.54-1.11L14.94,50.1l3.35-2.43A1.012,1.012,0,0,0,18.65,46.55Zm-5.83,3.47.55,1.7-1.44-1.05a.99.99,0,0,0-1.18,0L9.31,51.72l.55-1.7a.992.992,0,0,0-.36-1.11L8.06,47.86H9.84a1.009,1.009,0,0,0,.95-.69l.55-1.7.55,1.7a1,1,0,0,0,.95.69h1.78l-1.44,1.05A.977.977,0,0,0,12.82,50.02Z" fill="#13B0F5"/>
    <path d="M39.31,51.71a1,1,0,0,0-.95-.69H34.23l-1.28-3.93a1,1,0,0,0-1.9,0l-1.28,3.93H25.64a1,1,0,0,0-.59,1.81l3.35,2.43-1.28,3.93a1.012,1.012,0,0,0,.36,1.12,1.022,1.022,0,0,0,1.18,0L32,57.88l3.34,2.43a1.011,1.011,0,0,0,1.18,0,1.012,1.012,0,0,0,.36-1.12L35.6,55.26l3.35-2.43A1,1,0,0,0,39.31,51.71Zm-5.83,3.48.55,1.69-1.44-1.05a1.011,1.011,0,0,0-1.18,0l-1.44,1.05.55-1.69a.992.992,0,0,0-.36-1.12l-1.44-1.05H30.5a1,1,0,0,0,.95-.69L32,50.64l.55,1.69a1,1,0,0,0,.95.69h1.78l-1.44,1.05A.992.992,0,0,0,33.48,55.19Z" fill="#13B0F5"/>
    <path d="M59.97,46.55a.991.991,0,0,0-.95-.69H54.89l-1.28-3.93a1,1,0,0,0-1.9,0l-1.28,3.93H46.3a1,1,0,0,0-.59,1.81l3.35,2.43-1.28,3.93a1,1,0,0,0,1.54,1.11l3.34-2.43L56,55.14a1.01,1.01,0,0,0,.59.19.967.967,0,0,0,.59-.19.987.987,0,0,0,.36-1.12L56.27,50.1l3.34-2.43A1,1,0,0,0,59.97,46.55Zm-5.83,3.47.55,1.7-1.44-1.05a.988.988,0,0,0-.59-.19,1.01,1.01,0,0,0-.59.19l-1.44,1.05.55-1.7a.977.977,0,0,0-.36-1.11l-1.44-1.05h1.78a1,1,0,0,0,.95-.69l.55-1.7.55,1.7a1.009,1.009,0,0,0,.95.69h1.78L54.5,48.91A.992.992,0,0,0,54.14,50.02Z" fill="#13B0F5"/>
   </g>
</svg>